HIERARCHY
ROOT Hips
{
	OFFSET 0.000000 0.000000 0.000000
	CHANNELS 6 Xposition Yposition Zposition Zrotation Xrotation Yrotation
	JOINT Spine
	{
		OFFSET -0.705602 0.948509 -18.580898
		CHANNELS 3 Zrotation Xrotation Yrotation
		JOINT Chest
		{
			OFFSET 0.087786 1.637049 -19.367004
			CHANNELS 3 Zrotation Xrotation Yrotation
			JOINT Neck
			{
				OFFSET 0.611866 -8.098824 -4.803067
				CHANNELS 3 Zrotation Xrotation Yrotation
				JOINT Head
				{
					OFFSET 1.410373 9.998352 -17.087908
					CHANNELS 3 Zrotation Xrotation Yrotation
					End Site
					{
						OFFSET 0.000000 -5.000000 0.000000
					}
				}
			}
			JOINT LeftShoulder
			{
				OFFSET 12.672127 -1.648898 3.195412
				CHANNELS 3 Zrotation Xrotation Yrotation
				JOINT LeftElbow
				{
					OFFSET 15.396786 -2.967230 25.078593
					CHANNELS 3 Zrotation Xrotation Yrotation
					JOINT LeftWrist
					{
						OFFSET 0.571038 6.542850 21.688171
						CHANNELS 3 Zrotation Xrotation Yrotation
						End Site
						{
							OFFSET 0.000000 -5.000000 0.000000
						}
					}
				}
			}
			JOINT RightShoulder
			{
				OFFSET -12.459818 -4.363071 3.053438
				CHANNELS 3 Zrotation Xrotation Yrotation
				JOINT RightElbow
				{
					OFFSET -16.097276 -4.094850 24.544793
					CHANNELS 3 Zrotation Xrotation Yrotation
					JOINT RightWrist
					{
						OFFSET 0.449026 8.143058 21.813373
						CHANNELS 3 Zrotation Xrotation Yrotation
						End Site
						{
							OFFSET 0.000000 -5.000000 0.000000
						}
					}
				}
			}
		}
	}
	JOINT LeftHip
	{
		OFFSET 8.291738 8.313946 -0.294975
		CHANNELS 3 Zrotation Xrotation Yrotation
		JOINT LeftKnee
		{
			OFFSET 10.387466 3.865551 49.615940
			CHANNELS 3 Zrotation Xrotation Yrotation
			JOINT LeftAnkle
			{
				OFFSET 6.646096 -12.880966 36.178445
				CHANNELS 3 Zrotation Xrotation Yrotation
				JOINT LeftToe
				{
					OFFSET -4.030989 15.123067 7.706077
					CHANNELS 3 Zrotation Xrotation Yrotation
					End Site
					{
						OFFSET 0.000000 -5.000000 0.000000
					}
				}
			}
		}
	}
	JOINT RightHip
	{
		OFFSET -10.141483 5.324963 0.501587
		CHANNELS 3 Zrotation Xrotation Yrotation
		JOINT RightKnee
		{
			OFFSET -3.011105 4.483816 51.116899
			CHANNELS 3 Zrotation Xrotation Yrotation
			JOINT RightAnkle
			{
				OFFSET 4.170723 -15.455874 35.542751
				CHANNELS 3 Zrotation Xrotation Yrotation
				JOINT RightToe
				{
					OFFSET 1.464728 17.962387 8.581459
					CHANNELS 3 Zrotation Xrotation Yrotation
					End Site
					{
						OFFSET 0.000000 -5.000000 0.000000
					}
				}
			}
		}
	}
}
MOTION
Frames: 19
Frame Time: 0.008333
144.511115 -29.328074 -96.822386 -5.397186 3.315835 1.277231 0.043567 -0.960992 0.516116 -0.889303 -5.826859 0.042879 0.520811 -1.350526 1.065943 -0.000000 0.000000 0.000000 -3.686553 5.774749 -2.440432 -0.633014 6.560162 1.311569 -0.000000 0.000000 0.000000 -0.000000 0.000000 0.000000 3.011782 9.800262 -5.000000 -0.000000 0.000000 0.000000 0.646611 -2.187501 -3.254561 -0.902530 0.731989 -2.199657 5.603742 -8.156371 -4.743383 -0.000000 0.000000 0.000000 -0.284506 -3.538999 1.326756 -0.840745 3.330357 -1.084685 -3.536836 -10.434000 2.315262 -0.000000 0.000000 0.000000
144.237219 -29.082050 -95.249493 -5.214909 3.328326 1.173444 0.046969 -1.490726 0.551362 -0.735098 -3.658012 0.138725 0.453678 -2.931250 1.150833 -0.000000 0.000000 0.000000 -2.984133 4.551226 -2.797394 -0.743513 6.041063 1.681004 -0.000000 0.000000 0.000000 -0.885911 -1.128836 -0.808961 2.641823 8.589386 -5.000000 -0.000000 0.000000 0.000000 0.703418 -2.610105 -2.889997 -1.227616 2.185289 -2.440931 4.426685 -11.894233 -5.196078 -0.000000 0.000000 0.000000 -0.318313 -4.287453 1.288696 -0.841687 5.673077 -0.409219 -3.908425 -13.518452 2.654513 -0.000000 0.000000 0.000000
143.946741 -28.867934 -93.721320 -5.089417 3.369052 1.043852 0.057868 -2.002522 0.657150 -0.598909 -0.856563 0.287386 0.248778 -5.436676 1.114346 -0.000000 0.000000 0.000000 -1.945438 2.706474 -3.301090 -0.878246 5.516479 2.129890 -0.000000 0.000000 0.000000 -2.231192 -2.919148 -1.589855 2.388399 7.336446 -5.000000 -0.000000 0.000000 0.000000 0.759803 -3.043625 -2.419576 -1.583155 3.823310 -2.691662 4.225942 -14.589444 -5.841854 -0.000000 0.000000 0.000000 -0.356944 -5.087759 1.291114 -0.739886 8.116328 0.652420 -3.500641 -16.194203 2.679117 -0.000000 0.000000 0.000000
143.592789 -28.654572 -92.407707 -5.088917 3.406674 0.865424 0.074565 -2.386999 0.811672 -0.405934 1.703526 0.372305 0.018517 -8.036319 1.043171 -0.000000 0.000000 0.000000 -0.919463 0.875395 -3.603486 -0.997360 5.148835 2.522892 -0.000000 0.000000 0.000000 -3.406852 -4.425950 -2.336344 2.138824 5.944122 -5.000000 -0.000000 0.000000 0.000000 0.799491 -3.374927 -1.934298 -1.848623 5.192426 -2.808430 4.084348 -16.930853 -6.440832 -0.000000 0.000000 0.000000 -0.398196 -5.837801 1.430127 -0.616765 10.441570 1.856026 -2.616779 -18.342857 2.526248 -0.000000 0.000000 0.000000
143.156406 -28.347120 -91.497783 -5.312022 3.254152 0.637482 0.097061 -2.257271 1.030973 -0.036690 2.501394 0.208871 -0.063704 -9.352419 1.059831 -0.000000 0.000000 0.000000 -0.488346 0.155797 -3.432732 -1.069659 5.201416 2.726746 -0.000000 0.000000 0.000000 -3.743489 -4.801039 -2.695110 1.893330 4.841737 -4.869185 -0.000000 0.000000 0.000000 0.779338 -3.379127 -1.487700 -2.017421 6.091717 -2.867547 3.396102 -18.898666 -6.761934 -0.000000 0.000000 0.000000 -0.419806 -6.002210 1.824155 -0.372171 11.943464 3.186366 -0.871318 -19.985709 2.083039 -0.000000 0.000000 0.000000
142.704169 -27.973516 -91.051953 -5.540846 2.878611 0.528935 0.099119 -1.801906 1.071483 0.303972 1.614201 -0.062064 0.044841 -8.766957 1.166377 -0.000000 0.000000 0.000000 -0.699378 0.609409 -2.972292 -1.112316 5.697540 2.782864 -0.000000 0.000000 0.000000 -3.189284 -4.001952 -2.649311 1.680511 4.271616 -4.365446 -0.000000 0.000000 0.000000 0.684274 -2.962194 -1.232318 -2.083852 6.637731 -2.782928 2.878283 -19.979868 -6.905967 -0.000000 0.000000 0.000000 -0.413590 -5.489503 2.230069 -0.018059 12.432300 4.438821 1.247131 -20.796998 1.478643 -0.000000 0.000000 0.000000
142.201489 -27.630091 -90.939867 -5.743896 2.579914 0.493844 0.078483 -1.458848 0.875819 -0.000000 0.000000 0.000000 0.230005 -7.186137 1.284955 -0.000000 0.000000 0.000000 -1.108299 1.375144 -2.614268 -1.129956 6.592996 2.713673 -0.000000 0.000000 0.000000 -2.052504 -2.366623 -2.546654 1.543223 3.799369 -4.037418 -0.000000 0.000000 0.000000 0.621791 -2.678798 -1.118775 -2.085765 7.106938 -2.520721 2.142482 -20.358941 -6.769991 -0.000000 0.000000 0.000000 -0.414261 -4.926927 2.748769 0.324921 12.401804 5.000000 3.518906 -20.832555 0.750967 -0.000000 0.000000 0.000000
141.640869 -27.320125 -91.071475 -5.969031 2.351131 0.436220 0.052925 -1.342682 0.613687 0.658380 -0.426107 -0.420950 0.440446 -6.605588 1.558068 -0.000000 0.000000 0.000000 -1.290815 1.788411 -1.987595 -1.336724 7.077926 3.229027 -0.000000 0.000000 0.000000 -1.648647 -1.990945 -1.795325 1.431959 3.711858 -3.761833 -0.000000 0.000000 0.000000 0.595486 -2.558281 -1.078491 -2.023690 7.659748 -1.981397 1.415996 -20.216519 -6.474927 -0.000000 0.000000 0.000000 -0.432682 -4.470308 3.460081 0.549117 12.135522 5.000000 5.593268 -20.293077 -0.000208 -0.000000 0.000000 0.000000
141.033801 -26.980567 -91.431245 -6.184015 1.999000 0.313927 0.031173 -1.182089 0.385464 0.850220 -0.543650 -0.542496 0.603182 -6.238932 1.780068 -0.000000 0.000000 0.000000 -1.319148 1.880487 -1.708397 -1.453010 7.077130 3.554226 -0.000000 0.000000 0.000000 -1.245666 -1.596592 -1.072090 1.455006 3.631350 -3.820944 -0.000000 0.000000 0.000000 0.520886 -2.219457 -0.961756 -1.899208 7.893134 -1.409889 0.812432 -19.416363 -6.007782 -0.000000 0.000000 0.000000 -0.462347 -3.795508 4.365244 0.727284 11.524844 5.000000 7.555476 -19.362704 -0.799342 -0.000000 0.000000 0.000000
140.389294 -26.606120 -92.006880 -6.387168 1.484648 0.100607 0.021398 -0.845270 0.274666 1.069616 -0.478796 -0.667241 0.763832 -6.105673 2.025353 -0.000000 0.000000 0.000000 -1.308363 1.888728 -1.541668 -1.557675 6.846619 3.882386 -0.000000 0.000000 0.000000 -0.949944 -1.394805 -0.201101 1.529238 3.788625 -4.002822 -0.000000 0.000000 0.000000 0.364939 -1.550572 -0.626454 -1.752268 7.674311 -1.043623 0.446710 -17.814203 -5.363696 -0.000000 0.000000 0.000000 -0.502975 -2.842596 5.334037 0.846267 10.597787 5.000000 8.792261 -17.923846 -1.465326 -0.000000 0.000000 0.000000
139.699310 -26.202734 -92.773018 -6.578205 0.861070 -0.227121 -0.000000 0.000000 0.000000 1.165094 -0.570530 -0.729879 1.038632 -6.182172 2.478172 -0.000000 0.000000 0.000000 -1.148600 1.673275 -1.222668 -1.644881 6.465267 4.189102 -0.000000 0.000000 0.000000 -0.697873 -1.337553 0.975384 1.615157 3.997374 -4.211315 -0.000000 0.000000 0.000000 -0.000000 0.000000 0.000000 -1.481596 6.380124 -0.936489 0.304990 -15.531261 -4.592743 -0.000000 0.000000 0.000000 -0.562239 -1.641044 6.352221 0.939585 9.336149 5.000000 9.355716 -16.074698 -1.982945 -0.000000 0.000000 0.000000
138.974536 -25.783510 -93.715369 -6.707536 0.217743 -0.575510 -0.000000 0.000000 0.000000 1.360602 0.310458 -0.785206 1.121073 -6.339768 2.627753 -0.000000 0.000000 0.000000 -1.012825 1.444901 -1.238553 -1.741078 6.149488 4.515327 -0.000000 0.000000 0.000000 -0.601281 -1.438338 1.863980 1.642917 4.273523 -4.272534 -0.000000 0.000000 0.000000 -0.151628 0.450457 0.698595 -1.423858 5.983964 -0.985613 0.046129 -12.756938 -3.638485 -0.000000 0.000000 0.000000 -0.638430 -0.315454 7.312022 0.946675 7.818501 4.996851 9.029985 -13.737148 -2.251207 -0.000000 0.000000 0.000000
138.226935 -25.354702 -94.808981 -6.806890 -0.386856 -0.913394 -0.000000 0.000000 0.000000 1.533613 1.180364 -0.830267 1.181209 -6.464465 2.737590 -0.000000 0.000000 0.000000 -0.849823 1.167663 -1.273549 -1.823367 5.759746 4.819523 -0.000000 0.000000 0.000000 -0.522380 -1.560354 2.724230 1.632850 4.485987 -4.241905 -0.000000 0.000000 0.000000 -0.451625 1.522907 1.447838 -1.262309 4.782022 -1.167606 -0.243511 -9.597570 -2.571601 -0.000000 0.000000 0.000000 -0.730836 1.115062 8.197969 0.946487 5.942836 4.225910 8.236671 -11.127516 -2.350732 -0.000000 0.000000 0.000000
137.478488 -24.935493 -96.024768 -6.830994 -0.941796 -1.191837 -0.000000 0.000000 0.000000 1.648607 1.961062 -0.848283 1.184618 -6.499641 2.746650 -0.000000 0.000000 0.000000 -0.703134 0.907608 -1.362166 -1.886212 5.389151 5.000000 -0.000000 0.000000 0.000000 -0.435112 -1.637914 3.474218 1.587467 4.635802 -4.126502 -0.000000 0.000000 0.000000 -0.754168 2.587583 2.097339 -1.069155 3.397576 -1.335358 -0.731908 -6.076585 -1.325141 -0.000000 0.000000 0.000000 -0.827724 2.602659 8.915220 0.932592 3.772571 3.379986 6.877213 -8.233899 -2.207798 -0.000000 0.000000 0.000000
136.734610 -24.516381 -97.323985 -6.841751 -1.471847 -1.405317 -0.000000 0.000000 0.000000 1.772665 2.565566 -0.884416 1.170006 -6.323762 2.705213 -0.000000 0.000000 0.000000 -0.611738 0.742705 -1.430403 -1.917436 5.048561 5.000000 -0.000000 0.000000 0.000000 -0.284612 -1.588758 4.148745 1.470608 4.642061 -3.839599 -0.000000 0.000000 0.000000 -1.054612 3.637383 2.647474 -0.864745 1.862169 -1.529575 -1.386943 -2.250443 0.080664 -0.000000 0.000000 0.000000 -0.915346 4.093171 9.406678 0.930499 1.444717 2.586898 5.013388 -4.945424 -1.820405 -0.000000 0.000000 0.000000
136.006805 -24.100598 -98.675839 -6.845875 -1.991254 -1.565890 -0.000000 0.000000 0.000000 1.865484 2.996658 -0.913473 1.128435 -5.959984 2.600613 -0.000000 0.000000 0.000000 -0.564306 0.655357 -1.474469 -1.920005 4.814975 5.000000 -0.000000 0.000000 0.000000 -0.054293 -1.374961 4.727568 1.386716 4.637834 -3.633804 -0.000000 0.000000 0.000000 -1.350033 4.650434 3.142088 -0.662863 0.203756 -1.769457 -2.169466 1.956610 1.658052 -0.000000 0.000000 0.000000 -0.983495 5.596567 9.659442 1.010443 0.000000 2.012500 2.876745 -1.539862 -1.220691 -0.000000 0.000000 0.000000
135.302081 -23.692866 -100.048404 -6.821971 -2.483471 -1.681203 -0.000000 0.000000 0.000000 1.927552 3.133040 -0.942707 1.092261 -5.296993 2.472506 -0.000000 0.000000 0.000000 -0.609427 0.731283 -1.472272 -1.893223 4.675861 5.000000 -0.000000 0.000000 0.000000 0.297221 -0.921714 5.205753 1.295724 4.607092 -3.410869 -0.000000 0.000000 0.000000 -1.641282 5.652367 3.555824 -0.443745 0.000000 -2.043751 -3.194118 6.317825 3.418273 -0.000000 0.000000 0.000000 -1.024790 7.033372 9.699078 1.160960 0.000000 1.640849 0.466614 1.955418 -0.387325 -0.000000 0.000000 0.000000
134.614172 -23.300691 -101.414124 -6.829892 -2.947352 -1.780566 -0.000000 0.000000 0.000000 2.008602 3.040712 -0.997821 1.083763 -4.390998 2.361594 -0.000000 0.000000 0.000000 -0.723425 0.938184 -1.380879 -1.849061 4.624333 5.000000 -0.000000 0.000000 0.000000 0.731779 -0.307289 5.642773 1.232483 4.562479 -3.255991 -0.000000 0.000000 0.000000 -1.916024 6.584112 3.920120 -0.216167 0.000000 -2.350928 -4.551218 10.709728 5.405056 -0.000000 0.000000 0.000000 -1.042687 8.386617 9.599540 1.384726 0.000000 1.457037 -2.110982 5.544493 0.642548 -0.000000 0.000000 0.000000
133.953500 -22.937339 -102.743614 -6.781390 -3.347649 -1.847727 -0.000000 0.000000 0.000000 2.028667 2.695540 -1.031489 1.085118 -3.295778 2.243252 -0.000000 0.000000 0.000000 -0.929416 1.298844 -1.281696 -1.791436 4.583872 4.944003 -0.000000 0.000000 0.000000 1.240911 0.475067 5.962692 1.184890 4.521146 -3.139327 -0.000000 0.000000 0.000000 -2.162379 7.455391 4.151321 0.070070 0.000000 -2.544224 -6.507671 14.919073 7.759236 -0.000000 0.000000 0.000000 -1.033672 9.573548 9.378137 1.654859 0.000000 1.413557 -4.784271 9.079252 1.848579 -0.000000 0.000000 0.000000
